<?xml version="1.0" encoding="utf-8"?>
<!-- Generator: Adobe Illustrator 21.0.0, SVG Export Plug-In . SVG Version: 6.00 Build 0)  -->
<svg version="1.1" id="Layer_1" xmlns="http://www.w3.org/2000/svg" xmlns:xlink="http://www.w3.org/1999/xlink" x="0px" y="0px"
	 viewBox="0 0 11.3 11.3" style="enable-background:new 0 0 11.3 11.3;" xml:space="preserve">
<style type="text/css">
	.st0{opacity:0.19;enable-background:new    ;}
	.st1{fill:#FC6E03;}
	.st2{fill-rule:evenodd;clip-rule:evenodd;fill:#FEFEFE;}
	.st3{fill-rule:evenodd;clip-rule:evenodd;fill:#FC6E03;}
</style>
<ellipse class="st0" cx="1.3" cy="6.5" rx="0.5" ry="0.2"/>
<path class="st1" d="M1.3,4.3c-0.5,0-0.8,0.4-0.8,0.8c0,0.5,0.8,1.4,0.8,1.4s0.8-0.9,0.8-1.4C2.1,4.6,1.7,4.3,1.3,4.3z"/>
<path class="st2" d="M0.8,5.1C0.8,5,0.7,5,0.8,5.1C0.7,5,0.7,5,0.8,5.1C0.8,5,0.8,5,0.8,5.1c0-0.1,0-0.1,0-0.1c0,0,0-0.1,0-0.1
	c0,0,0,0,0,0c0,0,0,0,0,0c0,0,0,0,0-0.1c0,0,0,0,0,0c0,0,0,0,0,0c0,0,0,0,0,0c0,0,0,0,0,0c0,0,0,0,0,0c0,0,0,0,0,0c0,0,0,0,0,0
	c0,0,0,0,0,0c0,0,0,0,0,0c0,0,0,0,0,0c0,0,0.1,0,0.1,0c0,0,0,0,0,0c0,0,0,0,0,0c0.2,0,0.3,0,0.5,0c0,0,0,0,0,0c0,0,0,0,0,0
	c0,0,0.1,0,0.1,0c0,0,0,0,0,0c0,0,0,0,0,0c0,0,0,0,0,0c0,0,0,0,0,0c0,0,0,0,0,0c0,0.1,0,0.1,0,0.2c0,0,0,0,0,0.1c0,0.1,0,0.2,0,0.3
	c0,0,0,0,0,0.1c0,0,0,0,0,0.1c0,0,0,0.1,0,0.1c0,0,0,0,0,0c0,0,0,0,0,0c0,0.1,0,0.1,0,0.2c0,0,0,0,0,0c0,0,0,0,0,0c0,0,0,0,0,0
	c0-0.1,0-0.1-0.1-0.1c0,0,0,0,0,0c0,0,0,0,0,0c0,0,0,0,0,0c-0.2,0-0.4,0-0.6,0c0,0,0,0,0,0c0,0,0,0,0,0c0,0-0.1,0.1-0.1,0.1
	c0,0,0,0,0,0.1c0,0,0,0,0,0c0,0,0,0-0.1,0c0,0,0,0,0-0.1c0-0.1,0-0.1,0-0.2c0,0,0,0,0,0c0,0,0,0,0,0c0,0,0,0,0-0.1c0,0,0-0.1,0-0.1
	c0,0,0,0,0-0.1c0,0,0,0,0-0.1C0.8,5.1,0.8,5.1,0.8,5.1C0.8,5,0.8,5,0.8,5.1C0.8,5,0.8,5,0.8,5.1C0.8,5,0.8,5,0.8,5.1z"/>
<path class="st3" d="M1.5,4.9C1.5,4.9,1.5,4.9,1.5,4.9C1.5,4.9,1.5,4.9,1.5,4.9c0-0.1-0.1-0.1-0.1-0.1c-0.1,0-0.1,0-0.2,0
	c-0.1,0-0.1,0-0.2,0.1c0,0,0,0,0,0c0,0,0,0,0,0C1,5,1,5.1,1,5.1c0,0,0,0,0,0c0.1,0,0.2,0,0.3,0c0.1,0,0.2,0,0.3,0c0,0,0,0,0,0
	C1.5,5.1,1.5,5,1.5,4.9z M1.4,4.9C1.4,4.9,1.5,5,1.4,4.9C1.4,5,1.4,5,1.4,4.9C1.4,4.9,1.4,4.9,1.4,4.9z M1.4,4.8
	C1.4,4.9,1.4,4.9,1.4,4.8C1.4,4.9,1.3,4.9,1.4,4.8z M1.2,4.9C1.2,4.9,1.2,4.8,1.2,4.9C1.2,4.8,1.2,4.8,1.2,4.9
	C1.2,4.9,1.2,4.9,1.2,4.9C1.2,4.9,1.2,4.9,1.2,4.9C1.2,4.9,1.2,4.9,1.2,4.9C1.2,4.9,1.2,4.9,1.2,4.9C1.2,4.9,1.2,4.9,1.2,4.9
	C1.2,4.9,1.2,4.9,1.2,4.9z M1.1,5C1.1,5,1.1,5,1.1,5C1.1,5,1.1,4.9,1.1,5C1.1,4.9,1.1,4.9,1.1,5z M1.5,5.2c0,0-0.1,0-0.1,0
	c-0.1,0-0.2,0-0.2,0c0,0,0,0,0,0c0,0,0,0,0,0c0,0,0,0,0,0c0,0,0,0,0,0c0,0,0,0,0,0c0,0,0-0.1,0-0.1c0,0,0,0,0,0c0,0,0,0,0-0.1
	c0,0,0,0.1,0,0.1c0,0,0,0,0,0c0,0,0,0,0,0c0,0,0,0,0,0c0,0,0,0,0,0c0,0,0,0,0,0c0,0,0,0,0,0c0,0,0,0,0,0c0,0,0,0,0,0c0,0,0,0,0,0
	c0,0,0,0,0,0c0,0,0,0,0-0.1c0,0,0,0,0,0.1c0,0,0,0,0,0.1c0,0,0,0,0,0c0,0,0,0,0-0.1c0,0,0,0,0,0c0,0,0,0,0,0c0,0,0,0,0,0
	c0,0,0,0,0,0c0,0,0-0.1,0-0.1c0,0,0,0,0,0c0,0,0,0,0,0c0,0,0,0,0,0c0,0,0,0,0,0c0,0,0-0.1,0-0.1c0,0,0,0.1,0,0.1c0,0,0,0,0,0
	c0,0,0,0,0,0c0,0,0,0,0,0c0,0,0,0,0,0c0,0,0,0,0,0c0,0,0,0,0,0c0,0,0,0,0,0c0,0,0-0.1,0-0.1c0,0,0,0.1,0,0.1c0,0,0,0,0,0
	c0,0,0,0,0,0c0,0,0,0,0,0.1c0,0,0,0,0,0c0,0,0,0,0,0C1.4,5.1,1.4,5.1,1.5,5.2C1.4,5.1,1.4,5.1,1.4,5C1.4,5,1.4,5.1,1.5,5.2
	C1.4,5.1,1.4,5.1,1.5,5.2C1.4,5.1,1.4,5.1,1.5,5.2C1.5,5.1,1.5,5.1,1.5,5.2C1.5,5.1,1.5,5.1,1.5,5.2C1.5,5.1,1.5,5.1,1.5,5.2
	C1.4,5,1.4,5,1.5,5c0,0,0,0,0,0.1c0,0,0,0,0,0C1.5,5,1.5,5,1.5,5.2C1.5,5.1,1.5,5.1,1.5,5.2C1.5,5.1,1.5,5.1,1.5,5.2
	C1.5,5.1,1.5,5.1,1.5,5.2C1.5,5.1,1.5,5.1,1.5,5.2C1.5,5.1,1.5,5.2,1.5,5.2z"/>
</svg>
