<?xml version="1.0" encoding="utf-8"?>
<!-- Generator: Adobe Illustrator 21.0.0, SVG Export Plug-In . SVG Version: 6.00 Build 0)  -->
<svg version="1.1" id="レイヤー_1" xmlns="http://www.w3.org/2000/svg" xmlns:xlink="http://www.w3.org/1999/xlink" x="0px"
	 y="0px" viewBox="0 0 595.3 141.7" style="enable-background:new 0 0 595.3 141.7;" xml:space="preserve">
<style type="text/css">
	.st0{fill-rule:evenodd;clip-rule:evenodd;fill:#FEFEFE;}
	.st1{fill-rule:evenodd;clip-rule:evenodd;fill:#EC730D;}
	.st2{fill-rule:evenodd;clip-rule:evenodd;fill:#EF872B;}
	.st3{fill-rule:evenodd;clip-rule:evenodd;fill:#F09B48;}
	.st4{fill-rule:evenodd;clip-rule:evenodd;fill:#F3B16A;}
	.st5{fill-rule:evenodd;clip-rule:evenodd;fill:#EB8B34;}
	.st6{fill-rule:evenodd;clip-rule:evenodd;fill:#103021;}
	.st7{fill-rule:evenodd;clip-rule:evenodd;fill:#EF8326;}
	.st8{fill-rule:evenodd;clip-rule:evenodd;fill:#ED720B;}
	.st9{fill-rule:evenodd;clip-rule:evenodd;fill:#ED6D04;}
	.st10{fill-rule:evenodd;clip-rule:evenodd;fill:#F1943C;}
	.st11{fill-rule:evenodd;clip-rule:evenodd;fill:#F5AD65;}
	.st12{fill-rule:evenodd;clip-rule:evenodd;fill:#ED7511;}
	.st13{fill-rule:evenodd;clip-rule:evenodd;fill:#F29B48;}
	.st14{fill-rule:evenodd;clip-rule:evenodd;fill:#F7BE80;}
	.st15{fill-rule:evenodd;clip-rule:evenodd;fill:#ED710A;}
	.st16{fill-rule:evenodd;clip-rule:evenodd;fill:#EF8528;}
	.st17{fill-rule:evenodd;clip-rule:evenodd;fill:#F29A48;}
	.st18{fill-rule:evenodd;clip-rule:evenodd;fill:#F6BA7C;}
	.st19{fill-rule:evenodd;clip-rule:evenodd;fill:#EE720A;}
	.st20{fill-rule:evenodd;clip-rule:evenodd;fill:#EE882E;}
	.st21{fill-rule:evenodd;clip-rule:evenodd;fill:#F2A558;}
	.st22{fill-rule:evenodd;clip-rule:evenodd;fill:#F3BE80;}
	.st23{fill-rule:evenodd;clip-rule:evenodd;fill:#ED8C33;}
	.st24{fill-rule:evenodd;clip-rule:evenodd;fill:#EB8021;}
	.st25{fill-rule:evenodd;clip-rule:evenodd;fill:#EA842A;}
	.st26{fill-rule:evenodd;clip-rule:evenodd;fill:#F3BB7A;}
	.st27{fill-rule:evenodd;clip-rule:evenodd;fill:#EDAB64;}
	.st28{fill-rule:evenodd;clip-rule:evenodd;fill:#F1A253;}
	.st29{fill-rule:evenodd;clip-rule:evenodd;fill:#E9A35D;}
	.st30{fill-rule:evenodd;clip-rule:evenodd;fill:#E4BA7F;}
	.st31{fill:#FFFFFF;}
	.st32{font-family:'Athelas-Regular';}
	.st33{font-size:29.6268px;}
</style>
<g>
	<g>
		<path class="st0" d="M15,63.7c-1-1.6-1.9-3.1-2.9-4.5c-0.5-0.8-0.4-1.2,0.4-1.6c1.8-0.7,2.9-2.4,4.9-2.9c0.8-0.2,0.4-1.1,0.4-1.7
			c0-4.7,0-9.5,0-14.2c0-1.6,0.2-3.2,1.1-4.6c0.3-0.5,0.5-0.9,0.5-1.5c0-2.4,0-4.9,0-7.3c0-0.4,0.1-0.9-0.5-1
			c-0.6-0.1-0.9,0.1-1.1,0.6c-0.3,0.8-0.6,1.7-1,2.8c-1.4-1.6-2.1-3.3-3.1-4.9c-0.4-0.7,0.2-0.8,0.5-1.1c0.8-0.5,1.6-1.1,2.4-1.6
			c0.7-0.5,1.1-0.9,0.1-1.5c-1-0.6-0.5-1.2,0.2-1.5c1.5-0.7,2.6-1.8,3.4-3.3c0.5-1.1,1.4-1,2.3-1c4.5,0,9,0,13.6,0
			c0.7,0,1.5,0.3,2-0.4c1.2-1.8,3-1.5,4.7-1.5c17.1,0,34.3,0,51.4,0c1,0,2-0.1,2.5,1c0.5,1,1.5,0.9,2.3,0.9c4.5,0,9.1,0,13.6-0.1
			c1.2,0,1.9,0.2,2.4,1.4c0.5,1.3,1.4,2.3,2.6,2.8c0.5,0.2,0.9,0.5,0.7,1.1c-0.2,0.6-0.7,0.6-1.2,0.5c-1.8-0.3-2.1,0.6-2.1,2.2
			c0.1,5.8-0.2,11.6,0.1,17.3c0.1,2.5,1.5,5,0.9,7.6c-2.3,11.6-0.3,23.3-1.1,35c-0.2,2.8,1.3,5.1,1.2,7.8c-0.1,2.5-1.5,4.5-1.4,7.1
			c0.2,3.9-0.2,7.9,3.8,10.4c0.5,0.3,0.6,1,0.3,1.3c-1.4,1.2-0.6,2.5-0.5,3.8c0.7,6.6,1.5,13.1,2.3,19.7c0.2,1.3,0,1.9-1.5,1.8
			c-1.5-0.1-3.4,0.5-4.5-0.2c-1.2-0.7-0.5-2.8-0.8-4.3c-0.9-5.2-2-10.4-6.2-14.2c-1.3-1.1-2.6-2.2-4.2-2.6c-1.2-0.3-1.6-0.8-1.7-1.9
			c0-1.3-0.6-1.7-1.9-1.7c-21.2,0-42.3,0-63.5,0.1c-0.6,0-1.8-0.5-1.7,0.8c0.1,2-1.1,2.3-2.5,3.1c-4.8,2.6-7.6,6.8-8.8,12.1
			c-0.5,2.5-0.9,4.9-1,7.4c0,1.1-0.4,1.5-1.5,1.4c-1.9-0.2-4.4,0.8-5.6-0.4c-1.1-1.1,0-3.5,0.2-5.4c0.6-5.8,1.3-11.6,1.9-17.4
			c0.1-0.7,0.5-1.4-0.6-1.9c-0.9-0.4-0.6-1.3,0.1-1.8c2.4-1.9,2.6-4.4,2.9-7.2c0.4-3.7-1.1-7-1.3-10.5c-0.1-2.2,1.8-4.3-0.4-6.8
			C17.1,80.1,18,77,18,74.7c0-4.2,0-8.5,0-12.7c0-0.6,0.5-1.6-0.5-1.8c-1.1-0.2-1,0.9-1.3,1.5C15.7,62.3,15.8,63.1,15,63.7z"/>
		<path class="st0" d="M260.5,64.3c0,10,0,19.9,0,29.9c0,5.1,0,10.2,0,15.2c0,2,0.4,3.9,1.8,5.4c1.3,1.4,3,1.4,4.7,1.3
			c1.3-0.1,1.3,0.6,1.2,1.6c0,0.9,0.1,1.6-1.2,1.6c-5.1-0.1-10.2-0.1-15.2,0c-1.3,0-1.3-0.6-1.3-1.5c0-0.8-0.2-1.6,1.2-1.6
			c4.9-0.3,6.4-2,6.4-6.9c0-16.7,0-33.4,0-50.1c0-3.3-2.3-5.7-5.7-5.7c-1,0-2,0.3-2-1.5c0-1.8,0.9-1.6,2.1-1.6c4.7,0,9.5,0.1,14.2,0
			c1.5,0,2.1,0.5,2.6,1.9c4.7,14.3,9.5,28.5,14.3,42.7c0.2,0.6,0.5,1.2,0.9,2.3c1-3.6,1.9-6.7,2.8-9.8c3.3-11.8,6.7-23.5,10-35.3
			c0.4-1.3,0.8-1.8,2.2-1.8c5.6,0.1,11.3,0,16.9,0c1,0,1.7,0,1.6,1.4c-0.1,1.1-0.1,1.8-1.5,1.8c-2.6,0-4.3,1.5-4.9,4.2
			c-0.2,1-0.3,2.1-0.3,3.1c0,15.9,0,31.9,0,47.8c0,1.2,0.1,2.4,0.4,3.5c0.6,2.6,2.1,4,4.8,4.1c1.5,0,1.4,0.8,1.5,1.8
			c0.1,1.4-0.7,1.4-1.7,1.4c-7.2,0-14.5,0-21.7,0c-1,0-1.8,0-1.7-1.4c0.1-1,0-1.7,1.5-1.8c3.6-0.1,5.1-2.1,5.1-6.2
			c0-10.7,0-21.3,0-32c0-7.1,0-14.2-0.3-21.4c-1,3.4-2,6.8-2.9,10.2c-4.8,16.9-9.5,33.7-14.3,50.6c-0.2,0.9-0.2,1.9-1.7,1.9
			c-1.5,0-1.5-1-1.8-1.8c-5.7-17.2-11.3-34.3-17-51.5c-0.2-0.6-0.4-1.1-0.6-1.7C260.8,64.3,260.6,64.3,260.5,64.3z"/>
		<path class="st0" d="M510.5,87.7c6.7-9.6,13.4-19.3,20.1-28.9c0.9-1.3,1.2-2.7,0.4-4.1c-0.8-1.4-2.1-1.3-3.5-1.3
			c-0.9,0-2,0.5-2.5-0.4c-0.3-0.6-0.3-1.5-0.1-2.2c0.2-0.8,1.1-0.4,1.6-0.4c6.3,0,12.7,0,19-0.1c1.2,0,1.7,0.2,1.7,1.6
			c0,1.4-0.5,1.7-1.7,1.5c-5.6-0.5-9.4,2.3-12.3,6.7c-2.4,3.6-4.9,7.1-7.4,10.6c-0.9,1.2-0.9,2.1-0.3,3.4
			c5.1,11.9,10,23.9,15.1,35.8c1.4,3.4,3.2,6.4,7.6,6.4c1.4,0,0.6,1.3,0.8,1.9c0.2,1.2-0.6,1.1-1.4,1.1c-6.6,0-13.2,0-19.8,0
			c-0.8,0-1.7,0-2.5,0c-0.9,0-2,0.5-2-1.3c0-1.4,0.4-1.8,1.9-1.9c2.5-0.2,3.8-2.1,3.3-4.5c-0.6-3-2.1-5.6-3.3-8.3
			c-2.7-6.4-5.4-12.8-8.3-19.5c-2.3,3.3-4.4,6.3-6.5,9.3c-0.4,0.6-0.2,1.2-0.2,1.8c0,4.9,0,9.7,0,14.6c0,4.6,2,6.6,6.5,6.7
			c1.2,0,1.9,0,1.9,1.6c0,1.7-0.8,1.5-1.9,1.5c-8,0-16,0-24,0c-1.1,0-1.8-0.1-1.7-1.5c0-1.3,0.3-1.6,1.6-1.6c4.3,0,6.1-2.1,6.2-7.1
			c0-7.8,0-15.6,0-23.4c0-8.3,0-16.6,0-24.9c0-0.6,0-1.1-0.1-1.7c-0.4-3.9-2.3-5.7-6.2-5.7c-1.2,0-1.7-0.3-1.7-1.6
			c0-1.2,0.4-1.5,1.6-1.5c8.1,0,16.3,0.1,24.4,0c1.4,0,1.5,0.6,1.5,1.7c0,1.3-0.5,1.4-1.6,1.4c-4.8,0-6.5,1.8-6.5,6.6
			c0,8.7,0,17.4,0,26.1c0,0.5,0,1.1,0,1.6C510.2,87.6,510.4,87.7,510.5,87.7z"/>
		<path class="st0" d="M173.1,81.3c3.8-9.3,7.6-18.6,11.4-27.8c0.2-0.6,0.4-1.2,0.6-1.8c1-4-0.8-6.3-5-6.3c-1,0-2.4,0.6-2.3-1.5
			c0-1.6,0.5-1.9,2-1.9c6,0.1,12,0.1,18,0c1.4,0,1.8,0.3,1.8,1.7c0,1.3-0.3,1.9-1.7,1.8c-4.7-0.4-7.5,2.3-9.2,6.1
			c-2.7,5.9-5,11.9-7.5,17.9c-1.7,4.2-3.2,8.5-5.1,12.6c-1.8,3.8-2.5,7.7-2.3,11.9c0.2,4.8,0.1,9.6,0,14.4c0,1.3,0.1,2.5,0.4,3.7
			c0.7,2.7,2.1,3.7,4.8,3.7c0.8,0,1.7,0.1,2.5,0c2.1-0.4,2.2,0.8,2.1,2.4c-0.1,0.9-0.3,1.2-1.2,1.2c-9.7,0-19.4,0-29,0
			c-1.3,0-1.3-0.8-1.2-1.6c0.1-0.8-0.5-2,1.1-2c0.2,0,0.4,0,0.6,0c5.6-0.1,7.3-1.8,7.3-7.4c0.1-6.5,0-13,0-19.4
			c0-0.9-0.3-1.8-0.6-2.6c-5.1-11.4-10.3-22.8-15.4-34.2c-1.7-3.8-4-6.7-8.7-6.7c-1.6,0-0.8-1.3-0.9-2c-0.1-0.8,0-1.4,1.1-1.4
			c9.7,0,19.4,0,29,0c1.5,0,1.2,0.9,1.2,1.8c0,0.9,0.1,1.9-1.3,1.7c-0.5-0.1-1.1,0-1.7,0c-3.7,0-5.2,1.8-4.6,5.4
			c0.1,0.9,0.5,1.9,0.9,2.8c3.9,8.8,7.9,17.6,11.9,26.4C172.3,80.4,172.3,81,173.1,81.3z"/>
		<path class="st0" d="M403.1,119.2c-6.4,0-12.8,0-19.2,0c-2.8,0-3-0.4-1.8-2.9c7.3-14.5,14.6-29.1,21.9-43.6
			c3-5.9,5.9-11.8,8.9-17.7c0.7-1.4,0.7-1.9-1.1-1.8c-3,0.1-6-0.1-9,0.1c-6.9,0.4-11.9,4.1-15.8,9.7c-0.7,1.1-1.5,2.2-2.2,3.3
			c-0.4,0.6-0.6,1-1.4,0.5c-0.6-0.4-1.1-0.7-0.7-1.6c1.8-4.7,3.6-9.3,5.4-14c0.3-0.9,0.9-1.1,1.7-1.1c12.1,0,24.2,0,36.3,0
			c1.8,0,2.1,0.6,1.1,2.4c-4,8-8,15.9-12,23.8c-6.5,12.8-12.9,25.6-19.4,38.3c-0.5,0.9-0.5,1.3,0.7,1.3c4.2-0.1,8.4,0.3,12.5-0.3
			c7.5-1.1,13.3-5.1,17.6-11.2c0.5-0.7,0.9-1.4,1.3-2.1c0.4-0.6,0.6-1.2,1.6-0.7c0.8,0.5,1.1,0.8,0.7,1.8c-1.9,4.8-3.7,9.6-5.4,14.4
			c-0.5,1.3-1.3,1.2-2.3,1.2C416.2,119.3,409.6,119.3,403.1,119.2C403.1,119.2,403.1,119.2,403.1,119.2z"/>
		<path class="st0" d="M364.6,119.2c-4.2,0-8.4-0.1-12.5,0c-1.4,0-1.5-0.5-1.6-1.7c0-1.3,0.5-1.5,1.6-1.5c5.6-0.1,6.7-1.6,5.2-7.1
			c-0.9-3.2-1.8-6.4-2.6-9.7c-0.3-1.2-0.7-1.7-2.1-1.7c-5,0.1-10,0.1-15,0c-1.2,0-1.7,0.3-2,1.5c-0.8,3.7-1.8,7.3-2.6,11
			c-0.9,4,0.7,5.9,4.8,6.1c0.8,0,2.2-0.9,2.5,0.8c0.2,1.4,0.2,2.4-1.9,2.3c-5.2-0.2-10.4-0.1-15.7,0c-1.1,0-1.8,0-1.8-1.5
			c0-1.5,0.6-1.7,1.9-1.7c4.3,0,6.4-1.8,7.4-6c4.9-19.6,9.7-39.1,14.6-58.7c0.4-1.4,1-2,2.4-2.2c5.3-0.8,5.3-0.9,6.8,4.4
			c5.2,18.3,10.3,36.5,15.5,54.8c0.6,2.2,1.6,4.3,3.3,5.9c1.3,1.3,2.9,2,4.7,1.8c1.4-0.1,1.3,0.8,1.4,1.7c0.1,1.1-0.2,1.5-1.4,1.4
			C373.1,119.2,368.8,119.2,364.6,119.2z"/>
		<path class="st0" d="M233.3,119.2c-4.1,0-8.2,0-12.3,0c-1.1,0-1.8-0.1-1.8-1.5c0-1.4,0.5-1.6,1.7-1.6c5.4-0.1,6.5-1.7,5.1-7
			c-0.9-3.3-1.8-6.6-2.7-9.9c-0.3-1.1-0.7-1.6-1.9-1.6c-5,0.1-10,0.1-15,0c-1.2,0-1.8,0.3-2.1,1.6c-0.8,3.7-1.8,7.4-2.6,11.2
			c-0.8,3.6,0.8,5.6,4.5,5.6c1.5,0,3.2-0.4,2.9,2.1c-0.1,0.8-0.4,1-1.2,1c-5.6,0-11.3-0.1-16.9,0c-1.5,0-1.2-0.9-1.3-1.8
			c-0.1-1.1,0.3-1.4,1.4-1.4c5-0.1,6.7-1.6,8-6.4c4.8-19.4,9.6-38.7,14.4-58.1c0.4-1.5,1-2.1,2.5-2.3c5.3-0.7,5.2-0.8,6.7,4.2
			c5.2,18.3,10.3,36.5,15.5,54.8c0.6,2.2,1.4,4.2,3.1,5.8c1.3,1.3,2.8,2.3,4.8,2c1.3-0.2,1.5,0.4,1.5,1.5c0,1.2-0.2,1.7-1.6,1.7
			C241.7,119.2,237.5,119.2,233.3,119.2C233.3,119.2,233.3,119.2,233.3,119.2z"/>
		<path class="st0" d="M473.8,119.2c-4.2,0-8.4,0-12.5,0c-1.3,0-1.5-0.4-1.5-1.6c0-1.1,0.2-1.6,1.5-1.6c5.7-0.2,6.7-1.6,5.2-7.2
			c-0.9-3.2-1.8-6.4-2.6-9.7c-0.3-1.1-0.8-1.6-2-1.5c-5,0.1-10,0.1-15,0c-1.3,0-1.8,0.3-2.1,1.6c-0.8,3.7-1.8,7.3-2.7,10.9
			c-0.9,3.7,0.8,5.7,4.6,5.8c0.9,0,2.4-0.8,2.8,0.8c0.3,1.4,0.2,2.4-1.9,2.3c-5.2-0.2-10.4-0.1-15.7,0c-1.3,0-1.8-0.3-1.8-1.7
			c0-1.5,0.7-1.5,1.8-1.4c4.3,0.1,6.4-1.7,7.5-6.2c4.9-19.5,9.7-39,14.5-58.5c0.4-1.5,1-2,2.4-2.2c5.3-0.7,5.3-0.8,6.8,4.4
			c5.1,18.1,10.2,36.3,15.3,54.4c0.6,2.2,1.4,4.4,3.1,6c1.3,1.3,2.9,2.3,4.8,2c1.3-0.2,1.5,0.4,1.5,1.5c0,1.2-0.3,1.7-1.6,1.7
			C482.2,119.2,478,119.2,473.8,119.2z"/>
		<path class="st0" d="M565.7,119.3c-3.8,0-7.7,0-11.5,0c-1,0-1.7,0-1.7-1.4c0.1-1.1,0-1.7,1.5-1.8c4.4-0.2,6-2,6-6.5
			c0-8.8,0-17.7,0-26.5c0-4.7-1.6-6.3-6.2-6.5c-1.4-0.1-1.3-0.8-1.4-1.7c0-1,0.1-1.5,1.4-1.5c7.9,0.1,15.7,0.1,23.6,0
			c1.4,0,1.4,0.7,1.4,1.7c0.1,1.2-0.3,1.5-1.5,1.6c-4.5,0.1-5.9,1.6-5.9,6.1c0,9.1,0,18.1,0,27.2c0,4.5,1.4,6,5.9,6.3
			c1.3,0.1,1.6,0.4,1.6,1.7c0,1.5-0.7,1.5-1.8,1.5C573.4,119.2,569.6,119.2,565.7,119.3C565.7,119.2,565.7,119.2,565.7,119.3z"/>
		<path class="st1" d="M572.6,57.9c0,2.3,0.1,4.6,0,6.9c-0.1,2.4-2.2,4.9-4.5,5.4c-0.3,0.1-0.7,0.2-1-0.1c-0.3-0.3,0-0.6,0.1-0.9
			c0.4-1.2,0.9-2.3,1.5-3.8c-1.2,0.5-2,0.8-2.1-0.8c0-0.7-0.8-1.7-1.6-1.7c-0.8,0-1.1,1-1.4,1.7c-1,2.1-0.9,4.2,0.3,6.2
			c-3,0-5-1.8-5.1-4.6c-0.1-1.9,0.5-3.7,1.1-5.5c0.5-0.5,1.2-0.5,1.8-0.3c2.5,0.7,5.1,0.2,7.6,0.1c1.6,0,2.5-0.6,2.6-2.2
			C572.1,58.1,572.2,57.9,572.6,57.9z"/>
		<path class="st2" d="M572.3,58.2c0,0.7,0,1.4,0,2.1c0,0.6-0.3,1.3-1,1.1c-2.4-0.9-4.7,0.7-7,0.2c-1.5-0.3-3-0.6-4.4-0.8
			c0.4-1.7,0.9-3.4,1.5-5.1c1.3,0.7,2.6,0.7,4,0.8c0.8,0,1.7,0,2.3,0.6c0.3,0.9,0.7,1.9,1,2.8c0.9-0.5,0.7-1.7,1.3-2.4
			C571.4,56.4,571.9,57.1,572.3,58.2z"/>
		<path class="st3" d="M567.8,57c-1.6,0.5-3.2-0.2-4.9,0.2c-0.7,0.2-1.2-0.7-1.5-1.5c0.2-1.5,0.7-2.8,1.3-4.1
			c1.3-0.1,2.6,0.3,3.8-0.1C567.4,53.2,567.1,55.2,567.8,57z"/>
		<path class="st4" d="M566.6,51.5c-0.5,1.1-2.7,1.2-3.8,0.1c0.7-2.7,1.7-4.8,3.2-6.5C566.2,47.3,566.4,49.4,566.6,51.5z"/>
		<path class="st5" d="M572.3,58.2c-0.7-0.4-1.2-1.4-2.2-0.9c0.5-1.8,2.1-2.3,3.9-3.6c-0.6,1.8-1,2.9-1.3,4.1
			C572.5,58,572.4,58.1,572.3,58.2z"/>
		<path class="st6" d="M67.9,75.7c-8.8,0-17.5,0-26.3,0c-1.5,0-2-0.4-2-1.9c0.1-7.5,0.1-15,0-22.5c0-1.2,0.1-2.1,1.5-2.5
			c1.5-0.4,2.4-1.4,3.4-2.6c5.1-5.7,11.8-8,19.1-8.8c7.8-0.9,15.2,0.5,22.3,4c2.8,1.4,5.2,3.2,7,5.8c0.2,0.3,0.5,0.8,0.8,0.9
			c2.8,0.6,2.6,2.7,2.6,4.8c-0.1,7-0.1,14.1,0,21.1c0,1.4-0.4,1.7-1.7,1.7C85.7,75.7,76.8,75.7,67.9,75.7z"/>
		<path class="st7" d="M340.3,84.1c0.4-1.5,0.8-3.1,1.2-4.6c2.2,0.2,4.5,0.4,6.7,0.3c1.7-0.1,1.1,1.6,1.8,2.3c0.9-0.3,1-1.1,1.2-1.8
			c0.6-2,2-3.1,4.1-4.1c-0.4,1.8-0.7,3.4-1.1,5.1c0,0-0.1,0.1-0.1,0.1c-0.3,3.1-0.3,3-3.7,3.5c-1.2,0.2-2.6,0-3.7,0.6
			c-0.5-0.2-0.9,0-1.3,0.3C343.5,85.8,341.7,85.6,340.3,84.1z"/>
		<path class="st8" d="M346.7,85.4c-0.3-0.3-0.6-0.5-0.9-0.8c1.8,0.2,3.5-0.7,5.3-0.6c1.8,0.1,3,0.1,2.8-2.2c0-0.2,0.3-0.5,0.4-0.7
			c0,0.4,0,0.8,0,1.2c0.2,2,0.3,4,0,6.1c-0.5,2.7-2.4,3.9-4.6,4.9c-0.4,0.1-0.8,0.4-1.2,0.1c-0.4-0.4,0-0.8,0.1-1.1
			c0.6-1.4,1.1-2.8,1.7-4.3c-0.9-0.1-1.2,0.8-2.1,0.9C348.2,87.5,347.5,86.4,346.7,85.4z"/>
		<path class="st9" d="M340.3,84.1c1.7,0.5,3.5,0.7,5.1,1.6c-1.3,2.4-2.3,4.8-0.8,7.4c0.5,1,0,1.2-0.9,1c-2.1-0.5-4.1-2.6-4.3-4.8
			C339.3,87.5,339.5,85.8,340.3,84.1z"/>
		<path class="st10" d="M350.1,82c-1.3-2.6-3.7-1.4-5.6-1.6c-1.1-0.1-2.1-0.2-2.9-1c0.5-1.4,0.5-2.9,1.3-4.2
			c0.5-0.1,0.3-1.1,0.9-0.9c1.5,0.5,2.8-0.3,4.2-0.3C348.6,76.8,349.3,79.4,350.1,82z"/>
		<path class="st11" d="M347.9,74.1c-1.2,1-2.4,1.8-4,0.8c-0.5-0.3-0.7,0.4-1.1,0.4c0.8-3.1,1.9-6.2,4.1-9.2
			C347.2,69.1,347.9,71.5,347.9,74.1z"/>
		<path class="st7" d="M354.2,88.4c0-2,0-4,0-6.1C354.5,84.4,354.6,86.4,354.2,88.4z"/>
		<path class="st12" d="M223,88.4c-0.9,3-2.8,4.6-6.1,5c0.7-1.7,1.3-3.4,2.1-5.4c-1.7,1.1-2.2,0.6-2.5-0.9c-0.1-0.7-0.8-1.7-1.7-1.6
			c-0.8,0-1.1,1-1.4,1.7c-0.9,1.9-1.2,3.8-0.2,5.8c0.2,0.3,0.3,0.9,0.2,1.1c-0.3,0.5-0.9,0.1-1.3,0c-2.4-0.7-3.9-2.7-3.9-5.3
			c0-1.8,0.3-3.4,1-5c0.3-1.2,1.3-1.3,2.3-1.2c2.4,0.3,4.8,0.3,7.2,0c1.6-0.2,3.1-0.3,4.3-1.8C223.1,83.4,223.3,85.9,223,88.4z"/>
		<path class="st2" d="M223,88.4c0-2.4,0-4.7,0-7.1c-0.3,2.2-1.6,2.3-3.2,1.8c-1.3-0.5-2.2,0.5-3.4,0.6c-1.9,0.1-3.7-0.5-5.6-0.5
			c-0.6,0-1.2-0.1-1.7,0.5c0.1-1.5,0.7-2.8,1.1-4.2c0.6-0.9,1.4-1.4,2.5-1.2c1.6,0.3,3.2-0.3,4.8,0c0.5,1.2,0.9,2.4,1.6,4.1
			c1.1-2.8,1.8-5.5,5.1-6.2C222.4,80.3,223.8,84.4,223,88.4z"/>
		<path class="st13" d="M217.6,78.3c-1.6,1.4-3.5,0.9-5.3,0.7c-0.8-0.1-1.4,0.1-2,0.5c0.6-2.2,1.3-4.5,2.2-6.6
			c0.5-1.3,1.4-1.7,2.7-1.6c1.3,0.1,1.2,1.2,1.5,2.1C216.9,75,217.6,76.6,217.6,78.3z"/>
		<path class="st14" d="M216.7,73.3c-1-1.8-2.1-1.9-4.2-0.4c0.5-2.4,1.5-4.5,3.1-6.4C216.1,68.7,216.7,71,216.7,73.3z"/>
		<path class="st15" d="M463.3,89.2c-0.9,2.6-3,3.8-6,4.5c0.8-2.1,1.5-3.8,2.3-5.8c-0.8,0.4-1.4,0.7-2.1,1.1c0-1.7-0.7-3.4-2.1-3.4
			c-1.4,0-1.7,2-2.1,3.3c-0.4,1.4-0.3,2.7,0.3,4.1c0.2,0.4,0.6,0.9,0.1,1.3c-0.4,0.3-0.9,0-1.4-0.1c-2.4-0.9-3.8-2.9-3.8-5.6
			c0-1.8,0.6-3.5,1.1-5.2c3.7,0.4,7.5-0.1,11.2,0.1c2.4,0.1,2.6,0.4,2.5,2.8C463.5,87.1,463.7,88.2,463.3,89.2z"/>
		<path class="st16" d="M463.3,89.2c0-0.3,0-0.7,0-1c0-4.2-0.8-4.8-5.2-4.1c-2,0.3-4.1,0.2-6.2,0.2c-0.9,0-1.6-0.5-2.2-1.1
			c0.3-1.1,0.7-2.2,1-3.3c0.4-1.7,1.3-2.2,3-1.7c1.4,0.5,3.1-0.3,4.5,0.4c-0.1,1.3,1.1,2,1.3,3.3c1.2-2.4,2-5,5.2-5.8
			c-1.7,3.9-0.8,7.9-1.1,11.8C463.7,88.4,463.4,88.8,463.3,89.2z"/>
		<path class="st17" d="M458.2,78.7c-1.6,0.8-3.5,0.8-5,0.2c-1.6-0.6-1.8,0.2-2.5,1c0.4-2.3,1.3-4.5,2-6.7c0.4-1.1,1.2-1.7,2.5-1.5
			c1.4,0.2,1.9,1.1,2.1,2.4C457.6,75.7,457.9,77.2,458.2,78.7z"/>
		<path class="st18" d="M457.3,74.1c-1.1-2.1-2.9-2.4-4.6-0.9c0.5-2.6,1.7-4.8,3.5-7.4C456.7,69,457,71.6,457.3,74.1z"/>
		<path class="st19" d="M91.7,64.5c0.3,1.7,0.2,3.3-0.4,4.9c-0.2,0.6-0.8,1.6,0.2,2c0.9,0.3,1.3-0.6,1.6-1.3c0-0.1,0.2-0.1,0.3-0.2
			c1.2,3,0.1,4.8-3.1,4.9c-4.7,0.2-9.4,0.1-14.2,0.1c-8.7,0-17.4,0-26.1,0c-1.8,0-3.5-0.3-4.9-1.3c-1.1-0.8-1.8-1.9-1.9-3.4
			c0.8,0.3,1.1,1.5,1.9,0.9c0.7-0.5-0.1-1.3-0.2-1.9c-0.1-0.5-0.2-0.9-0.4-1.4c0.1-0.3,0.1-0.7,0.1-1c0-0.7-0.3-1.7,0.8-1.8
			c1.1-0.2,2.4-0.4,3.3,0.6c0.2,0.2,0,0.5-0.1,0.8c-0.4,0.4-0.3,0.9-0.4,1.3c-0.2,1.2-0.1,2.4,1.4,2.5c1.5,0.1,1.5-1.1,1.7-2.1
			c0.2-1.6-0.1-3.2,0.4-4.7c0.2-0.8,0.5-1.6,1.4-2.1c0.2,1.5-0.8,2.9,0.4,4.2c0.9-0.1,0.5-1,1-1.4c2.6-1.2,3.3-0.9,4.2,1.6
			c1.3,1.8,1.5,1.7,2.9-0.8c0.7-1,1.7-1.1,2.7-1.2c3.9-0.1,7.7,0,11.6-0.1c1.2-0.1,2.7-0.1,3.5,1.3c-0.4,1.4-1.4,2.6-1.3,4.1
			c0.1,0.7,0.2,1.5,0.9,1.8c0.8,0.3,1.2-0.5,1.6-1c1.7-2.4,3-5,2.5-8.4c1.9,1.2,1.9,2.9,1.8,4.5c-0.1,1.1-0.3,2.2-0.1,3.3
			c0.2,1,0.7,1.7,1.8,1.6c1-0.1,1.6-0.8,1.6-1.9c0.1-1.4-0.6-2.5-1.1-3.7C88.4,63.4,90,63.7,91.7,64.5z"/>
		<path class="st20" d="M79.5,64.9c-5.5-0.9-11-0.2-16.5-0.4c-0.5,0-0.7,0.7-1.3,0.4c0.3-2.4,1.3-4.8,0.2-7.5
			c1.4,0.5,1.5,1.6,1.9,2.4c0.3,0.5,0,1.5,0.9,1.4c0.6-0.1,0.6-0.8,0.8-1.3c0.1-0.3,0.2-0.5,0.3-0.8c1-2.1,2.8-1.6,4.5-1.6
			c-0.1,0.8-0.2,1.5-0.2,2.3c0,1.3,0.6,2.1,1.9,2.4c1.3,0.3,1.9-0.5,2.4-1.4c0.8-1.4,0.1-3,0.3-4.5c0.8,1.3,2,1.1,3.3,0.7
			c0.3,0.4,0.4,0.8,0.4,1.3c0.7-0.1,0.2-0.9,0.9-1.2C81.1,59.7,80.9,62.3,79.5,64.9z"/>
		<path class="st21" d="M70.3,57.5c-0.5,0.8-1.3,0.9-2.1,0.8c-0.9-0.1-1.7,0.2-2.4,0.8c-0.3-3.3-0.1-6.8-2-10c1.4-0.1,1.9,1,2.6,1.8
			c0.8,0.9,1.5,1.2,2.4,0.3c1.8-0.9,2.3-0.8,3.3,1.2C71.5,54.1,70.5,55.7,70.3,57.5z"/>
		<path class="st22" d="M60.4,53.7c-0.7-1.1-1.6-2.1-2.2-3.2c-1-1.7-0.8-3.5,0.1-5.1c1-1.8,1.7-3.7,0.8-5.9c1.7,0.7,2,2.1,2.3,3.4
			c0.2,0.6-0.1,1.6,0.7,1.8c0.9,0.2,0.7-1.1,1.4-1.5c0.4,1.3,0.2,2.5-0.6,3.4C61,48.6,60.5,51,60.4,53.7z"/>
		<path class="st23" d="M58.7,65.8c-0.8-2-2.7-1.3-4.2-1.6c0.5-1.6,1-3.2,1.5-4.8c0.6-1.9,1.1-3.8,0.1-5.8c2.3,1.2,3.4,3.3,3.2,5.8
			C59.1,61.5,58.3,63.6,58.7,65.8z"/>
		<path class="st24" d="M48.8,66.4c-0.7-1.6-2.1-0.7-3.1-0.8c-1.3-0.1-0.3,1.6-1,2.3c-0.5-2.9,0.1-5.5,2.2-7.8
			c0.4,1.1-0.7,2.1,0.1,3.1c2.3-1.9,1.8-4.6,1.8-7.6C51.5,59.6,50.3,63,48.8,66.4z"/>
		<path class="st25" d="M91.7,64.5c-1.4,0.7-1.4,0.7-2.8-0.3c0.6,2.1-1,1.1-1.7,1.2c-2.4-3.6-2.3-7.1,0.3-9.1
			c0.4,2.4-0.7,5.2,1.8,7.1c0.8-0.9,0-1.8,0.2-2.8C90.8,61.6,91.6,62.8,91.7,64.5z"/>
		<path class="st26" d="M72,52.4c-1-0.7-1.8-1.9-3.3-1.2c2.3-3.3,2.4-6.9,1.6-10.9C73.4,43.4,74,48.1,72,52.4z"/>
		<path class="st27" d="M81.8,57c1-1.9,0.5-3.4,0-5c-0.7-2.3-0.2-3.7,1.7-4.9C84.4,50.4,87.2,54,81.8,57z"/>
		<path class="st28" d="M78,57c-0.2,0.1-0.6,0.2-0.7,0.4C77,58,77,58.8,75.8,58.5c-1.2-0.3-0.7-1.2-0.9-1.8
			c-0.1-0.2-0.2-0.4-0.3-0.5c-0.7-4.4-0.1-6.3,2.5-7.7C76.4,51.6,76.9,54.3,78,57z"/>
		<path class="st29" d="M51,49.6c3.1,1.8,3.7,3.1,2.5,5.8c-0.4,0.9-0.2,1.7-0.3,2.7C49.5,55.9,52.9,52.3,51,49.6z"/>
		<path class="st30" d="M76.9,46.6c0.8-1.8-1.4-4,1-5.4C79.5,45.1,79.5,45.1,76.9,46.6z"/>
	</g>
	<text transform="matrix(1 0 0 1 280.7402 37.1051)" class="st31 st32 st33">HOUSE OF FIRE</text>
</g>
</svg>
