<?xml version="1.0" encoding="utf-8"?>
<!-- Generator: Adobe Illustrator 21.0.0, SVG Export Plug-In . SVG Version: 6.00 Build 0)  -->
<svg version="1.1" id="Layer_1" xmlns="http://www.w3.org/2000/svg" xmlns:xlink="http://www.w3.org/1999/xlink" x="0px" y="0px"
	 viewBox="0 0 48 48" style="enable-background:new 0 0 48 48;" xml:space="preserve">
<style type="text/css">
	.st0{opacity:0.19;enable-background:new    ;}
	.st1{fill:#C54041;}
	.st2{fill:#A92B2C;}
	.st3{fill:#8F4041;}
	.st4{fill-rule:evenodd;clip-rule:evenodd;fill:#FEFEFE;}
	.st5{fill-rule:evenodd;clip-rule:evenodd;fill:#103021;}
	.st6{fill-rule:evenodd;clip-rule:evenodd;fill:#EE720A;}
	.st7{fill-rule:evenodd;clip-rule:evenodd;fill:#EE882E;}
	.st8{fill-rule:evenodd;clip-rule:evenodd;fill:#F2A558;}
	.st9{fill-rule:evenodd;clip-rule:evenodd;fill:#F3BE80;}
	.st10{fill-rule:evenodd;clip-rule:evenodd;fill:#ED8C33;}
	.st11{fill-rule:evenodd;clip-rule:evenodd;fill:#EB8021;}
	.st12{fill-rule:evenodd;clip-rule:evenodd;fill:#EA842A;}
	.st13{fill-rule:evenodd;clip-rule:evenodd;fill:#F3BB7A;}
	.st14{fill-rule:evenodd;clip-rule:evenodd;fill:#EDAB64;}
	.st15{fill-rule:evenodd;clip-rule:evenodd;fill:#F1A253;}
	.st16{fill-rule:evenodd;clip-rule:evenodd;fill:#E9A35D;}
	.st17{fill-rule:evenodd;clip-rule:evenodd;fill:#E4BA7F;}
</style>
<ellipse class="st0" cx="23.5" cy="44.7" rx="10.4" ry="3.3"/>
<path class="st1" d="M23.5,0c-9.4,0-17,7.5-17,16.8s17,28,17,28s17-18.7,17-28S32.9,0,23.5,0z"/>
<circle class="st2" cx="23.5" cy="15.5" r="4.2"/>
<path class="st3" d="M23.5,12.2c2.2,0,3.9,1.6,4.2,3.8c0-0.2,0.1-0.3,0.1-0.5c0-2.3-1.9-4.2-4.2-4.2s-4.2,1.9-4.2,4.2
	c0,0.2,0,0.3,0.1,0.5C19.6,13.9,21.3,12.2,23.5,12.2z"/>
<path class="st4" d="M13.6,16.1c-0.2-0.3-0.4-0.6-0.6-0.8C13,15.1,13,15.1,13.1,15c0.3-0.1,0.6-0.5,0.9-0.5c0.1,0,0.1-0.2,0.1-0.3
	c0-0.9,0-1.8,0-2.7c0-0.3,0-0.6,0.2-0.9c0.1-0.1,0.1-0.2,0.1-0.3c0-0.5,0-0.9,0-1.4c0-0.1,0-0.2-0.1-0.2c-0.1,0-0.2,0-0.2,0.1
	C14.1,9,14.1,9.2,14,9.4c-0.3-0.3-0.4-0.6-0.6-0.9c-0.1-0.1,0-0.2,0.1-0.2C13.7,8.1,13.8,8,14,7.9c0.1-0.1,0.2-0.2,0-0.3
	c-0.2-0.1-0.1-0.2,0-0.3c0.3-0.1,0.5-0.3,0.6-0.6c0.1-0.2,0.3-0.2,0.4-0.2c0.9,0,1.7,0,2.6,0c0.1,0,0.3,0.1,0.4-0.1
	c0.2-0.3,0.6-0.3,0.9-0.3c3.2,0,6.5,0,9.7,0c0.2,0,0.4,0,0.5,0.2c0.1,0.2,0.3,0.2,0.4,0.2c0.9,0,1.7,0,2.6,0c0.2,0,0.4,0,0.4,0.3
	c0.1,0.2,0.3,0.4,0.5,0.5c0.1,0,0.2,0.1,0.1,0.2c0,0.1-0.1,0.1-0.2,0.1c-0.3-0.1-0.4,0.1-0.4,0.4c0,1.1,0,2.2,0,3.3
	c0,0.5,0.3,0.9,0.2,1.4c-0.4,2.2-0.1,4.4-0.2,6.6c0,0.5,0.2,1,0.2,1.5c0,0.5-0.3,0.9-0.3,1.3c0,0.7,0,1.5,0.7,2
	c0.1,0.1,0.1,0.2,0.1,0.2c-0.3,0.2-0.1,0.5-0.1,0.7c0.1,1.2,0.3,2.5,0.4,3.7c0,0.2,0,0.4-0.3,0.3c-0.3,0-0.6,0.1-0.8,0
	c-0.2-0.1-0.1-0.5-0.2-0.8c-0.2-1-0.4-2-1.2-2.7c-0.2-0.2-0.5-0.4-0.8-0.5C30.1,25.1,30,25,30,24.8c0-0.2-0.1-0.3-0.4-0.3
	c-4,0-8,0-12,0c-0.1,0-0.3-0.1-0.3,0.2c0,0.4-0.2,0.4-0.5,0.6c-0.9,0.5-1.4,1.3-1.7,2.3c-0.1,0.5-0.2,0.9-0.2,1.4
	c0,0.2-0.1,0.3-0.3,0.3c-0.4,0-0.8,0.1-1.1-0.1c-0.2-0.2,0-0.7,0-1c0.1-1.1,0.2-2.2,0.4-3.3c0-0.1,0.1-0.3-0.1-0.4
	c-0.2-0.1-0.1-0.2,0-0.3c0.5-0.4,0.5-0.8,0.5-1.4c0.1-0.7-0.2-1.3-0.2-2c0-0.4,0.3-0.8-0.1-1.3c-0.2-0.2,0-0.8,0-1.3
	c0-0.8,0-1.6,0-2.4c0-0.1,0.1-0.3-0.1-0.3c-0.2,0-0.2,0.2-0.3,0.3C13.7,15.9,13.8,16,13.6,16.1z"/>
<path class="st5" d="M23.6,18.4c-1.7,0-3.3,0-5,0c-0.3,0-0.4-0.1-0.4-0.4c0-1.4,0-2.8,0-4.3c0-0.2,0-0.4,0.3-0.5
	c0.3-0.1,0.5-0.3,0.6-0.5c1-1.1,2.2-1.5,3.6-1.7c1.5-0.2,2.9,0.1,4.2,0.8c0.5,0.3,1,0.6,1.3,1.1c0,0.1,0.1,0.2,0.2,0.2
	c0.5,0.1,0.5,0.5,0.5,0.9c0,1.3,0,2.7,0,4c0,0.3-0.1,0.3-0.3,0.3C27,18.4,25.3,18.4,23.6,18.4z"/>
<path class="st6" d="M28.1,16.3c0.1,0.3,0,0.6-0.1,0.9c0,0.1-0.2,0.3,0,0.4c0.2,0.1,0.2-0.1,0.3-0.2c0,0,0,0,0.1,0
	c0.2,0.6,0,0.9-0.6,0.9c-0.9,0-1.8,0-2.7,0c-1.6,0-3.3,0-4.9,0c-0.3,0-0.7-0.1-0.9-0.3c-0.2-0.2-0.3-0.3-0.4-0.6
	c0.1,0.1,0.2,0.3,0.4,0.2c0.1-0.1,0-0.2,0-0.4c0-0.1,0-0.2-0.1-0.3c0-0.1,0-0.1,0-0.2c0-0.1-0.1-0.3,0.2-0.3c0.2,0,0.4-0.1,0.6,0.1
	c0,0,0,0.1,0,0.2c-0.1,0.1-0.1,0.2-0.1,0.3c0,0.2,0,0.4,0.3,0.5c0.3,0,0.3-0.2,0.3-0.4c0-0.3,0-0.6,0.1-0.9c0-0.1,0.1-0.3,0.3-0.4
	c0,0.3-0.1,0.6,0.1,0.8c0.2,0,0.1-0.2,0.2-0.3c0.5-0.2,0.6-0.2,0.8,0.3c0.3,0.3,0.3,0.3,0.5-0.2c0.1-0.2,0.3-0.2,0.5-0.2
	c0.7,0,1.5,0,2.2,0c0.2,0,0.5,0,0.7,0.2c-0.1,0.3-0.3,0.5-0.2,0.8c0,0.1,0,0.3,0.2,0.3c0.2,0.1,0.2-0.1,0.3-0.2
	c0.3-0.5,0.6-0.9,0.5-1.6c0.4,0.2,0.4,0.5,0.3,0.9c0,0.2-0.1,0.4,0,0.6c0,0.2,0.1,0.3,0.3,0.3c0.2,0,0.3-0.2,0.3-0.3
	c0-0.3-0.1-0.5-0.2-0.7C27.5,16.1,27.8,16.1,28.1,16.3z"/>
<path class="st7" d="M25.8,16.4c-1-0.2-2.1,0-3.1-0.1c-0.1,0-0.1,0.1-0.2,0.1c0.1-0.5,0.3-0.9,0-1.4c0.3,0.1,0.3,0.3,0.4,0.5
	c0.1,0.1,0,0.3,0.2,0.3c0.1,0,0.1-0.2,0.1-0.3c0,0,0-0.1,0.1-0.1c0.2-0.4,0.5-0.3,0.9-0.3c0,0.1,0,0.3,0,0.4c0,0.2,0.1,0.4,0.4,0.5
	c0.2,0.1,0.4-0.1,0.5-0.3c0.2-0.3,0-0.6,0.1-0.8c0.2,0.3,0.4,0.2,0.6,0.1c0.1,0.1,0.1,0.2,0.1,0.3c0.1,0,0-0.2,0.2-0.2
	C26.1,15.4,26,15.9,25.8,16.4z"/>
<path class="st8" d="M24,15c-0.1,0.2-0.3,0.2-0.4,0.1c-0.2,0-0.3,0-0.4,0.2c0-0.6,0-1.3-0.4-1.9c0.3,0,0.4,0.2,0.5,0.3
	c0.1,0.2,0.3,0.2,0.5,0.1c0.3-0.2,0.4-0.1,0.6,0.2C24.3,14.3,24.1,14.6,24,15z"/>
<path class="st9" d="M22.2,14.3c-0.1-0.2-0.3-0.4-0.4-0.6c-0.2-0.3-0.2-0.7,0-1c0.2-0.3,0.3-0.7,0.2-1.1c0.3,0.1,0.4,0.4,0.4,0.6
	c0,0.1,0,0.3,0.1,0.3c0.2,0,0.1-0.2,0.3-0.3c0.1,0.2,0,0.5-0.1,0.6C22.3,13.3,22.2,13.7,22.2,14.3z"/>
<path class="st10" d="M21.9,16.5c-0.2-0.4-0.5-0.3-0.8-0.3c0.1-0.3,0.2-0.6,0.3-0.9c0.1-0.4,0.2-0.7,0-1.1c0.4,0.2,0.6,0.6,0.6,1.1
	C21.9,15.7,21.8,16.1,21.9,16.5z"/>
<path class="st11" d="M20,16.6c-0.1-0.3-0.4-0.1-0.6-0.2c-0.2,0,0,0.3-0.2,0.4c-0.1-0.5,0-1,0.4-1.5c0.1,0.2-0.1,0.4,0,0.6
	c0.4-0.4,0.3-0.9,0.3-1.4C20.5,15.4,20.3,16,20,16.6z"/>
<path class="st12" d="M28.1,16.3c-0.3,0.1-0.3,0.1-0.5-0.1c0.1,0.4-0.2,0.2-0.3,0.2c-0.5-0.7-0.4-1.3,0-1.7c0.1,0.5-0.1,1,0.3,1.3
	c0.1-0.2,0-0.3,0-0.5C27.9,15.7,28.1,16,28.1,16.3z"/>
<path class="st13" d="M24.4,14c-0.2-0.1-0.3-0.4-0.6-0.2c0.4-0.6,0.5-1.3,0.3-2.1C24.6,12.3,24.7,13.2,24.4,14z"/>
<path class="st14" d="M26.2,14.9c0.2-0.4,0.1-0.6,0-0.9c-0.1-0.4,0-0.7,0.3-0.9C26.7,13.6,27.2,14.3,26.2,14.9z"/>
<path class="st15" d="M25.5,14.9c0,0-0.1,0-0.1,0.1c-0.1,0.1-0.1,0.3-0.3,0.2c-0.2-0.1-0.1-0.2-0.2-0.3c0,0,0-0.1-0.1-0.1
	c-0.1-0.8,0-1.2,0.5-1.5C25.2,13.8,25.3,14.4,25.5,14.9z"/>
<path class="st16" d="M20.4,13.5c0.6,0.3,0.7,0.6,0.5,1.1c-0.1,0.2,0,0.3-0.1,0.5C20.1,14.7,20.8,14,20.4,13.5z"/>
<path class="st17" d="M25.3,12.9c0.1-0.3-0.3-0.8,0.2-1C25.8,12.6,25.8,12.6,25.3,12.9z"/>
</svg>
